<svg xmlns="http://www.w3.org/2000/svg" viewBox="0 0 440 440">
<path
   d="M 0,0 V 455.07227 H 446.89648 V 0 Z m 268.07812,54.75391 c 23.18897,0 34.78711,13.27397 34.78711,39.82031 v 177.1289 h 9.83985 c 11.74681,0 21.16934,1.60239 28.26367,4.80665 7.09433,3.20424 10.64162,10.22378 10.64063,21.05664 0,8.85035 -2.89925,15.29782 -8.69532,19.33789 -5.79919,4.04474 -14.4977,6.06445 -26.08984,6.06445 h -13.95899 v 42.56445 c 0,11.74995 -2.59603,20.48206 -7.78125,26.20313 -5.18835,5.72108 -12.12854,8.58203 -20.82421,8.58203 -8.54569,0 -15.44956,-2.93948 -20.71289,-8.81055 -5.26332,-5.87107 -7.89454,-14.53245 -7.89454,-25.97461 V 322.9668 H 130.76953 c -14.49643,0 -25.36703,-3.2802 -32.61133,-9.8418 -7.24901,-6.55846 -10.87109,-15.4832 -10.87109,-26.77539 0,-2.89646 0.5314,-5.83595 1.60156,-8.81055 1.06547,-2.97459 2.66787,-6.10044 4.80664,-9.38281 2.13408,-3.27923 4.34798,-6.44379 6.63672,-9.49805 2.28876,-3.04958 5.10945,-6.7889 8.4668,-11.21484 L 230.08984,85.18945 C 238.02,74.51281 244.5429,66.76847 249.65625,61.96289 c 5.11023,-4.80558 11.24942,-7.20898 18.42187,-7.20898 z m -22.42382,83.98828 -98.40625,132.96093 h 98.40625 z"/>
</svg>
