<svg xmlns="http://www.w3.org/2000/svg"  viewBox="0 0 455 455" version="1.1" id="svg23">
  <path
     id="path20"
     d="m 228.21049,99.102472 0.19953,3.407338 -0.27627,1.03346 -0.56788,1.27392 -1.78554,2.37901 -4.69661,3.40222 -8.61046,7.81235 -5.08543,3.87802 -0.70092,1.86738 -0.37349,2.59389 3.04411,0.51673 1.17672,0.87997 -0.73162,1.31997 -4.50219,4.57894 -1.3302,4.13896 3.45339,-0.14838 2.84458,-0.7981 5.6789,-2.57854 5.33102,-1.91344 2.55806,-0.0818 4.98312,1.52973 1.13067,0.0461 2.11296,-0.70602 2.13854,-0.12796 14.47866,0.48093 4.02129,-0.90045 2.66039,1.07438 2.22552,2.68087 2.11809,4.94219 -0.0665,0.82369 -1.27902,2.2511 -2.35855,2.82411 -2.0311,3.88826 -0.59347,2.09763 -0.39906,2.29713 -0.63952,2.1232 -4.04175,9.96623 -3.9343,5.53055 -1.75485,3.92406 -2.16923,3.12597 -2.08738,1.96459 -2.23063,1.30973 -6.43611,1.40183 -1.80088,1.00276 -2.14877,1.71903 -2.26133,0.85438 2.64504,-0.10739 2.62456,-0.95673 4.77848,-0.353 5.49473,3.2999 -0.50649,2.70644 -2.21017,2.13343 -5.01894,0.33767 -4.6915,4.74777 -2.11806,1.46321 -2.23576,0.72649 -2.79342,-0.21487 -5.07519,-1.27393 -2.22553,-1.32508 2.01064,2.16925 2.27669,1.13066 13.22008,2.67063 0.79813,-0.2814 4.2157,-2.81898 5.61751,-0.0408 10.69272,5.17753 3.08504,3.96501 4.4101,5.6738 2.39947,2.21529 1.73437,2.01063 1.07439,3.0134 2.06691,9.94066 2.36365,9.71554 3.09527,10.52388 1.40693,2.92644 1.84181,2.05156 9.34718,4.71196 2.07716,1.56555 3.62734,4.53289 3.49432,4.82964 3.24875,3.71431 3.51478,3.00317 -1.70367,1.56042 -1.16649,2.45574 0.86975,3.33572 1.43252,3.18736 2.81386,5.09568 2.47622,5.56635 -0.91579,-0.83905 -0.96182,-0.46046 -1.30973,0.13815 -1.28416,-0.27116 -2.36877,-1.73949 -2.27669,-2.13855 -4.52265,0.85952 -2.51202,-0.38883 -2.1846,0.0614 4.13896,1.23298 4.52266,0.087 9.98158,9.33695 3.37153,5.53565 2.00552,7.31608 -1.36089,3.28456 -2.12831,2.12831 -1.97994,2.43528 -1.85716,2.75248 5.53054,4.03664 1.19207,-0.12272 1.22275,-0.56279 1.17671,-1.37623 1.98506,-3.34084 1.02323,-1.19207 3.44316,-0.42974 2.89062,0.2558 2.88038,0.74185 2.53249,-0.23536 5.10078,1.43253 2.62457,1.29438 6.49238,5.82727 1.40694,3.18735 0.64464,4.11339 0.0717,4.56359 -1.08973,4.17475 -1.25346,3.76548 -0.77764,4.86033 -0.54744,1.75483 -0.76741,1.37114 -3.43804,3.8371 -2.29203,1.57577 -0.96184,-0.69068 -1.02835,0.0972 -0.10739,0.9209 1.08463,1.95947 0.0153,2.36367 -2.03109,1.75483 -2.06693,0.74184 -3.4534,-0.93114 -4.79893,3.25899 3.44828,1.67809 0.69579,1.78041 -0.86461,3.13619 -2.16925,1.3967 -2.40458,0.61905 -2.46088,0.14838 -2.04133,0.76741 -1.95437,1.47857 2.45575,-0.78789 1.70367,0.69068 1.06416,2.63481 0.97207,0.75718 4.79893,1.12556 2.96736,-0.005 5.73007,-0.64463 2.75248,0.0153 0.97718,0.48092 0.0204,2.18459 -0.42976,5.36683 -0.75718,1.10509 -7.59235,4.51243 -1.56042,3.15154 -0.43486,1.90832 -4.44082,-0.33767 -2.08226,2.01576 -3.59666,1.34042 -2.77805,1.4274 -2.72179,1.80089 -2.24085,0.53719 -9.66951,-2.13854 -5.83751,0.17395 -7.90954,1.86738 -2.03623,-0.30697 -3.05944,-1.78553 -3.12595,-1.2074 -3.60177,-0.53208 -3.1055,-1.64739 1.93902,3.16687 -4.31291,3.05946 -1.98505,0.60883 -2.0618,-0.0972 -4.21057,0.83393 -3.90362,-0.42464 0.58835,2.17435 1.04369,1.89298 -0.84928,0.82369 -0.89532,0.20465 -7.43375,-1.43252 -1.05392,0.27628 -0.91579,1.31996 -2.70642,-0.71115 -2.62459,-2.23063 -2.79341,-1.49392 -2.93154,-0.7009 -2.32785,0.24558 -9.58763,3.50455 -1.90832,3.5199 -0.95672,4.99335 -1.38136,4.43057 -2.26133,3.41759 -2.68597,0.44509 -2.52737,-2.36365 -4.80405,-2.60924 -1.63205,-1.76506 -0.52184,-0.10228 -0.53721,0.62928 -1.88784,0.79812 -1.94925,0.0358 -3.00829,0.70092 -5.2338,2.12319 -2.11296,1.43764 -4.54313,3.96499 -0.92602,1.10509 -1.65251,4.00082 -2.52738,0.70602 -2.30738,-2.5683 -2.62968,-0.89531 -2.77296,0.87996 -1.67297,1.36091 -0.78277,-1.10509 -0.0255,-2.27669 2.02598,-2.71155 5.39754,-2.05156 4.74265,-5.31568 2.32785,-3.24362 0.92089,-1.82134 1.13579,-1.16649 1.4888,-0.43999 0.7623,-2.01063 6.58446,-8.09885 0.54231,-1.85716 0.32743,-3.32549 0.54232,-3.19757 5.36171,-2.07204 2.55806,-6.72771 0.70602,-0.53208 7.47468,-1.233 5.54077,0.0972 5.51009,1.31484 2.8241,0.11774 2.82922,-0.45022 2.22041,-1.81623 3.8064,-6.54865 2.13855,-2.88038 2.45062,-2.60412 2.29203,-2.97247 3.71943,-5.50497 -2.51714,1.89808 -3.03387,3.0083 -1.75995,1.7446 -5.59194,1.75995 -2.40968,1.79576 -4.22083,4.0571 -0.80835,0.33254 -6.36958,-0.97205 -4.73753,-5.2594 -3.02876,-2.15389 -1.24834,-0.24558 -1.29438,0.64464 -2.76783,0.65487 -2.819,-0.11251 1.43764,-2.43017 1.95437,-1.35576 -4.3743,-0.94137 -1.21763,-0.73672 -1.3916,-1.70369 -3.43293,-0.29161 -1.63717,0.43487 -2.7627,2.2511 -4.36919,2.38924 -5.25937,-3.31526 -1.03347,-1.45299 0.0306,-2.80876 -0.79301,-2.22039 -1.45809,-0.78278 1.86738,-2.89572 2.2511,-1.92879 4.95754,-1.91344 7.50538,-4.54313 4.21057,-1.93902 3.91384,-3.3357 1.61671,-2.03623 1.1716,-2.7883 1.16136,-3.41757 1.66274,-2.77295 -1.61159,-0.6651 -0.72137,-2.0925 0.19441,-2.12319 0.74696,-1.88786 -0.67022,-2.36365 -1.18182,-2.46598 0.0665,-1.92367 0.31208,-2.05668 -3.01853,0.1125 -3.01339,0.63952 -2.72691,1.4581 -2.64504,1.97994 -2.3483,0.36837 0.0358,-1.58601 1.01812,-1.95947 2.6655,-2.79341 2.8548,-2.31762 1.013,-1.75995 0.79812,-2.04646 1.41716,-1.64226 3.72455,-3.10039 7.13701,-3.4892 1.06416,-0.20465 2.79852,0.40418 2.75248,-0.52696 2.40971,-1.25858 2.39946,-0.26603 5.40775,3.6171 -1.61157,-5.60217 2.38923,-1.34043 3.45339,5.06498 1.28926,0.53208 2.71156,-0.7316 -1.04881,-0.85441 -1.22275,-0.0512 -1.59624,-0.76231 -1.34554,-1.62694 -2.24087,-5.15194 0.12272,-3.05945 1.50927,-3.18223 1.66786,-2.92132 -1.40183,-0.58324 -1.12044,-1.12044 -0.32231,-2.92642 0.43999,-2.58875 3.00317,-2.28181 0.8851,-3.46874 0.37346,-3.81152 -0.49626,-1.74971 -2.97759,0.28649 -1.44786,0.71115 -1.29951,1.13066 -1.33005,-0.0717 -3.68362,-4.21569 -2.09762,-3.18735 -3.76036,-6.7533 -0.53719,-4.03152 3.01341,-8.69742 4.65056,-5.56636 5.47938,-1.93391 -1.05905,-0.37346 -8.34952,-0.0768 -2.75248,0.68557 -2.54784,2.27157 -1.44276,0.6958 -1.51437,0.2609 -1.38136,1.13069 -1.34554,1.57064 -1.40182,1.00789 -2.78829,-0.26093 -1.35066,0.33254 -0.97207,-0.91067 -0.81346,-1.50414 -1.06416,-0.40417 -1.19206,0.46556 -2.51202,2.02599 -2.54272,1.19718 -3.0748,-1.27904 -4.03151,-2.38412 -0.79812,0.87487 -0.89532,2.20504 -0.51162,3.4534 -2.86504,-2.99805 -2.44039,-4.00593 -0.81859,-2.51715 -0.0614,-2.83433 1.32508,-1.09998 1.43763,1.00789 2.14878,-6.72261 4.26174,-8.75371 1.50926,-2.56318 1.04881,-3.34596 -0.17907,-2.19481 -0.94137,-1.85204 -3.965,-4.20034 0.0512,-3.42271 0.42464,-3.86268 1.0795,-2.31762 0.45023,-0.43997 5.26961,0.0614 -2.05157,-1.19718 -4.09802,-3.49432 0.0717,-1.2381 0.96694,-3.22829 -0.44509,0.32743 -0.87999,1.49392 -1.67297,3.60688 -1.02322,0.84416 -2.90086,0.85951 -0.52183,1.7753 -0.46557,0.46556 -1.44787,0.19954 -0.44511,1.65762 -0.3172,0.10739 -0.41441,-1.78552 -0.0409,-2.96735 0.57813,-2.7269 1.09997,-2.13344 4.24639,-4.85008 -2.06693,1.49902 -4.68125,4.47662 -2.39435,2.952 -0.63953,0.99253 -0.19952,0.83905 0.0153,0.96694 1.0744,5.18265 -0.30697,2.39947 -4.03663,15.86002 -0.7623,1.59112 -0.70092,0.82881 -0.6651,0.19442 -1.99017,-0.30697 -0.89021,-1.18694 0.0104,-1.34555 0.37348,-2.02088 1.67297,-7.52583 0.72649,-2.08738 1.07951,-1.94413 2.37389,-3.40224 -0.0564,-0.21999 -1.58089,0.6651 -0.67532,-0.21999 -0.48604,-0.67533 0.3172,-10.08903 1.28416,-3.32036 0.48092,-4.82964 1.11019,-4.13383 1.28927,-3.0134 0.9823,-3.85246 1.47855,-1.71901 0.39395,-2.61947 1.65763,-2.83434 1.28415,-2.96736 -0.69068,0.29163 -8.20116,7.72025 -2.08228,1.40693 -2.84968,-0.37348 -2.17436,-0.86974 -1.70368,-1.82646 -0.75717,-3.50967 -2.10274,-0.092 -1.79575,-0.60882 0.0205,-0.47068 2.31762,-1.91344 3.71431,-0.65487 3.47898,-3.05943 -3.09016,-2.06693 0.26093,-0.65486 2.6962,-1.76508 3.42781,-5.90401 0.6958,-5.43335 -1.64227,-2.55293 -0.58836,-1.66787 -3.27945,-1.86738 -0.54743,-2.38414 0.3786,-1.3353 1.06926,-1.29949 1.61159,-1.013 2.52737,-0.96695 -2.29202,-1.03857 -0.85952,-1.22788 -0.64463,-1.77017 -0.0614,-1.02835 1.18694,-4.58406 0.69067,-1.88786 1.35066,-2.4097 6.13424,0.13814 0.70604,-1.06416 0.69579,-0.0408 3.13619,0.97207 -0.46557,-1.04882 -5.13148,-5.71472 -0.46046,-1.08973 1.46323,-3.08503 0.10739,-1.37113 -0.21488,-1.46833 0.41953,-1.12042 1.62692,-0.52697 4.95242,0.0512 1.22276,-0.52183 -0.55765,-1.48368 -1.15114,-1.95436 -0.2251,-1.64229 0.27115,-1.44787 0.0614,-2.91619 0.22513,-1.28927 1.17669,-1.928778 0.97208,-0.573 1.20741,-0.33767 2.72177,0.644622 1.03346,0.777657 1.19207,1.841808 0.87998,-0.148362 3.38687,-2.000409 1.01812,-0.286506 1.38646,2.317611 5.78636,-1.846928 7.78675,-0.82881 4.67614,-1.217643 4.92174,-0.439977 4.59941,-1.381364 4.87056,0.634394 0.16371,0.803233 -0.25582,1.115326 z m -77.23318,136.437088 3.33573,1.03858 2.48644,-0.0255 2.21017,3.03897 1.18182,4.78871 2.7576,4.72732 3.60175,4.11336 0.14326,2.51715 -1.28927,1.35066 -2.69108,1.67809 0.0104,1.79576 1.7753,-0.90555 1.53484,-0.41441 3.69386,0.39906 1.28926,1.82646 0.89532,2.73202 0.46558,2.24598 -0.3172,2.4404 -0.99253,-0.77254 -1.013,-2.18459 -1.12044,-1.00788 -1.30461,-0.54232 0.59347,2.99807 -0.23533,4.00593 0.56788,0.37859 1.75483,0.0665 -1.15624,4.10315 -2.39946,1.11531 -2.79342,0.41441 -0.67021,1.45298 -0.5065,1.87251 -1.4581,2.79341 -1.92366,1.57578 -2.37901,-0.3172 -2.32784,-1.24323 -2.026,-0.26092 -1.41716,0.74184 -0.9209,0.69067 -0.89021,-0.12796 -2.55295,0.26605 -2.40459,-0.0564 -0.34278,-1.08974 0.41441,-3.27944 -0.5372,-0.8851 -2.29714,-0.45532 -0.84928,-0.78278 -1.31996,-2.26133 -0.2558,-1.05905 -0.18932,-1.45809 -1.39669,-1.88785 -1.68832,-1.35065 -0.99254,-0.0614 -1.98505,2.19995 -1.63206,2.23575 0.57813,1.12043 0.5372,1.47345 -0.89022,1.05904 -2.69108,2.42504 -0.41952,0.93626 -0.72649,0.51161 -1.27904,-0.67022 -3.19246,0.15348 -1.46833,-0.42463 -1.70879,-1.78553 -4.16966,-1.19206 -0.6958,-2.8548 -0.80323,-0.5372 -4.7273,-4.90126 -0.62928,-1.63716 0.61393,-0.97718 1.76507,-1.47856 5.92448,-2.45063 0.93113,-0.98742 0.19442,-0.86973 -1.7446,-0.99765 -1.56554,-1.09485 -0.53209,-0.72139 -0.0461,-0.62416 0.89021,-0.81346 1.79063,-0.0614 1.41206,0.36836 1.12555,-0.7316 1.97483,-0.73672 1.32507,-0.92602 1.1409,-2.39947 1.2023,-2.15389 0.12796,-1.16648 1.05393,-4.09291 0.57813,-1.013 3.745,-2.68085 0.94649,1.46322 1.84181,0.35811 1.65251,-1.34553 1.97994,-4.2515 1.37113,-0.26605 1.5195,0.3479 2.97758,-0.5372 5.2952,-1.97994 z m 4.17477,-130.09308 -3.00317,7.2649 -1.17671,0.17907 -1.03346,1.82135 -3.20271,2.0004 2.79342,0.0409 0.78276,0.67022 0.0255,1.43764 -0.54231,0.83904 -3.6171,3.32549 -2.48646,1.2688 -2.67572,3.47897 -1.35578,0.0408 -1.33531,2.21529 -1.10509,0.97208 h -0.61905 l -0.71115,-0.48605 -1.65762,-2.16923 3.0134,-2.13343 0.28139,-1.19718 2.0618,-1.24321 -0.17394,-0.38884 -3.26921,-1.75483 -1.29439,-1.17671 0.12272,-0.61394 1.57577,-1.36089 -0.74695,-0.17396 -0.5065,-0.7316 -0.91067,-0.28138 -0.27627,-0.68044 -0.16883,-1.78555 0.24557,-1.83157 0.95671,-0.80835 0.38884,-0.86462 0.3837,-0.26604 1.48369,0.46045 1.4939,1.46322 1.74972,-0.56791 2.0311,0.2814 0.0409,-0.33766 -1.4939,-3.60175 0.27114,-0.73163 0.80835,-0.83904 4.68126,-2.56318 5.84263,-4.3129 1.41206,-0.675336 0.42975,0.588356 0.59348,2.23575 z m 1.27903,35.76689 -0.0358,1.84181 -0.4144,2.16414 0.54231,2.30225 0.12271,1.64227 0.99765,0.52185 0.60882,0.7572 4.43057,0.84927 4.12361,-0.24045 0.79301,0.68043 0.092,1.07439 -0.65486,1.18184 -2.34319,2.16412 -2.79852,3.49432 -0.83905,0.7316 -0.90556,0.0306 -0.64463,-0.31209 -0.46557,-6.22122 -3.03386,0.79301 -2.44551,-0.087 -1.34043,-0.76231 -0.93625,-1.45809 -1.89297,-3.75013 -5.51008,-1.47345 -1.56042,-2.06693 -0.47069,-1.24833 0.19953,-0.68556 1.15112,-1.53996 1.43252,0.54744 0.89021,-0.33256 0.54231,-0.68555 -0.0105,-0.5679 -0.75207,-1.33531 -0.0358,-0.41441 5.63286,-1.69343 0.49627,-2.64506 1.22275,-0.21487 1.39158,0.86463 1.91344,2.74736 z m 114.38655,-126.38388 0.48604,2.93666 1.22275,-0.762303 1.84693,2.818991 0.94138,0.0051 1.55018,-1.120434 -0.31721,2.619462 -1.60646,7.28026 -0.45023,1.232989 -0.30696,2.210171 -0.32232,0.434872 -0.47067,4.471502 -1.08974,1.473441 -0.91068,3.514784 -0.36837,0.342783 -1.33531,-1.350664 1.33531,-5.366817 0.54744,-3.115727 -0.3479,-1.621815 -0.75207,-1.452982 -2.04134,-0.04605 -1.71391,0.670213 -0.36324,-0.859511 -0.0512,-1.156246 -0.41441,-0.38371 -2.2818,0.07674 -0.67022,-0.317201 -0.43997,-1.064155 -0.087,-0.844163 2.05668,-0.65998 1.94414,0.245574 2.83434,-1.683208 -1.77018,-5.653331 -2.34831,-0.532078 -0.5423,-0.547426 0.45021,-0.961832 1.28927,-0.516731 1.98506,-2.870152 1.19205,-0.45022 1.46834,0.08186 z m -105.70958,174.75696 -9.41881,2.3176 -3.24875,-0.20465 -0.29161,-1.13578 0.64463,-0.7623 2.68597,-0.73673 1.08975,-5.57147 -4.06223,-2.5683 -0.21487,-0.71626 0.3172,-1.22787 0.47068,-0.54231 2.46599,-1.29438 1.03856,-0.29162 0.83905,0.17394 1.72925,1.49392 1.95949,3.1413 2.61946,0.49627 1.77529,1.3302 z m 37.38871,125.98481 0.99252,0.77766 2.49668,-0.12272 -0.82881,1.72925 -2.74225,1.92367 -1.85203,1.90321 -2.23064,1.59111 -1.08462,-1.82646 -1.25857,0.0717 -1.91855,-3.50455 -0.3479,-5.25428 2.51202,-1.366 3.46874,0.087 z m -45.6922,-108.73834 0.85439,5.35148 0.82881,3.32038 0.0564,1.13067 -0.78278,1.57576 -3.89337,2.09763 -1.22787,0.0104 -0.0512,-0.5065 0.87997,-2.13343 -0.75719,-2.41993 0.36836,-1.84181 -0.36324,-0.33766 -0.7572,0.26091 -2.7934,2.92132 -0.93114,0.29163 -0.10229,-0.59348 0.69068,-2.39434 0.0818,-1.63717 0.41953,-1.00277 0.75719,-0.93112 0.90556,-0.6958 0.72647,-0.0972 0.77766,0.71625 2.26134,-2.00551 z m 72.63889,-129.161939 -0.31208,1.028335 1.79575,-0.02043 2.60412,0.874861 1.5809,0.107397 1.30972,1.084614 -0.72138,2.041347 -0.78789,0.567886 -0.8902,0.117614 -3.09527,-2.036212 -4.0622,0.84416 -0.80835,-0.260925 -0.53719,-0.557656 -0.22,-0.700916 v -1.422289 l -0.22511,-0.419519 -1.46833,1.345551 -0.64464,-0.158608 -0.36836,-0.644637 -0.15349,-1.335309 0.16372,-1.928775 0.85951,-2.742248 1.46322,-0.547428 2.17436,0.317203 2.49155,1.555305 0.7572,0.956706 -0.0205,0.767424 z m -48.43446,149.237659 -2.9827,0.0306 -1.07438,-0.35813 -1.28927,-1.013 -1.44787,-5.72495 0.52185,-2.026 0.58835,-0.9874 0.65487,-0.77255 1.57065,-0.32231 1.56554,1.08461 0.59346,1.00277 1.30973,3.87292 0.24558,3.31526 z m 95.54384,198.32187 -1.98506,1.43763 -0.62418,1.68833 -0.4758,0.67021 -1.31483,0.43488 -1.2944,0.0104 -4.94218,-3.38689 -1.13579,0.15349 1.12555,-1.55019 3.06968,-1.26369 1.72926,-1.66274 3.98547,1.6167 z m -115.99303,-213.56283 -0.49115,0.44509 -1.19717,-0.12272 -0.44511,-0.6702 -0.24558,-1.03347 -0.0306,-1.89297 0.72648,-1.35577 3.06457,-2.04646 -1.38648,-0.72648 -0.0564,-0.51162 0.79811,-1.70367 3.2948,-2.64504 0.88509,-0.48093 0.87486,0.0767 -1.70369,4.70173 z m -29.21825,-77.86758 2.6655,2.34319 -2.12318,3.89337 -3.2641,-0.0205 -4.58917,-2.84457 -0.0205,-0.57811 0.38371,-0.85441 0.68557,-0.67532 0.71625,-0.1586 1.1409,0.46556 1.58599,-0.74696 1.26881,0.23536 z m -1.0488,23.6519 -0.99765,0.23534 -1.30972,-0.22512 -0.80324,-0.64464 -0.81347,-2.56318 -0.15349,-1.55018 0.36326,-2.88039 -0.087,-3.44316 2.70132,-0.11251 0.69068,0.50138 0.46556,10.22715 z m 146.80238,-141.635097 -0.59859,0.480916 -2.30738,-4.236159 1.70879,-4.8449802 2.07204,0.1534835 0.33256,1.2688022 -0.20977,1.1664785 -1.05393,0.107437 -0.0972,0.353015 0.33254,2.251099 0.0204,2.619461 z m -39.89051,55.305425 -2.0311,1.038577 -0.86464,-0.859511 -0.23022,-2.680861 -2.41992,-1.146014 -1.1716,-0.716253 -0.91579,-1.350659 0.23534,-0.414412 1.57578,-0.552536 2.69108,2.450623 1.10509,1.979947 1.99529,0.583236 0.25069,0.306975 z m -10.30389,16.361391 -1.35066,0.552546 -1.34042,-0.04085 -2.09251,-2.409691 -0.793,-1.749723 0.14326,-1.161364 0.88508,-0.388832 2.02088,0.567899 1.04368,2.005525 0.13303,1.30461 0.24557,0.511619 1.25857,0.516728 z m 56.54353,-84.0939084 -0.005,0.4809161 -1.22787,3.5147857 0.0204,1.3404266 -1.97994,-0.1279078 -0.31209,-0.4297562 -0.37348,-2.0157562 0.25069,-2.1436609 0.27627,-0.5525425 0.57813,-0.2302262 0.62416,0.4195224 0.98229,-1.0846203 0.51163,0.025577 z m -41.97278,65.8753584 -2.67573,0.05121 1.38135,-2.465974 1.60647,-0.619058 3.0441,0.276275 -0.54232,1.105085 z m -88.21752,94.464321 -0.70091,0.5423 -0.89021,-0.10739 -0.87486,-0.69067 -1.16647,-1.95949 2.60923,-1.36089 1.04368,0.79812 0.39906,0.91068 0.0205,1.01297 z m 79.21824,-74.050933 -0.22511,0.122713 -0.8595,-0.762308 -1.42229,-2.742252 2.23063,-0.542307 1.05904,0.337662 -0.39394,1.166485 z m -86.98965,89.880253 -1.34554,0.23024 -0.0972,-0.58836 2.33296,-2.819 1.51438,-0.46556 0.52696,0.27626 -1.09484,1.63205 z m -19.13946,-15.8549 -2.07715,0.57301 -0.77254,-0.33768 -0.13302,-0.52695 0.47581,-1.43252 1.59622,-0.5065 1.15114,0.77766 0.18418,0.70601 z m 0,0"/>
</svg>
