<svg xmlns="http://www.w3.org/2000/svg"  viewBox="0 0 455 455" version="1.1" id="svg23">
  <path
     id="path20"
     d="m 222.07546,1.8282338 -32.54858,56.4562892 31.02704,-7.145067 33.36591,0.272436 -7.94182,42.515692 -27.37741,46.766746 31.48968,3.33094 2.41596,5.4796 27.12553,61.57091 20.84406,8.38388 18.74165,59.4531 8.67688,20.61273 36.89732,9.94141 -3.70104,33.37105 -15.51353,15.29763 12.15688,26.99703 -27.39282,27.32602 -40.73714,-0.4832 -51.84541,14.35181 -14.20274,-10.27553 -20.12954,24.45257 -28.17417,-5.92166 -21.38893,19.92393 -16.18691,-10.41946 44.65921,-54.81137 27.2592,-11.26761 -0.2416,-0.0463 -47.55323,-8.69231 -8.61519,-20.76694 31.81867,-16.17149 -16.67525,-28.10733 5.78287,-34.18323 45.26063,4.72397 0.0515,0.005 4.47722,-30.29712 -20.39169,-32.14251 -0.46778,-0.72992 -36.97446,-9.18553 -7.25814,-14.12049 11.06713,-23.31656 -10.01337,-14.37751 -16.39766,24.6736 -1.7837,-50.29816 -15.37988,-26.611501 11.062,-53.947806 23.65581,-42.3306337 24.31379,4.1328214 z m -80.90884,212.9228862 -16.32056,35.84869 -23.01842,-10.75358 -18.83418,0.71451 6.276359,-27.96342 -6.276359,-27.95827 25.53204,-2.14867 z m 0,0"/>
</svg>
